<?xml version="1.0" encoding="UTF-8"?><svg xmlns="http://www.w3.org/2000/svg" viewBox="0 0 255.76 460.25"><defs><style>.cls-1{fill:#231f20;}.cls-1,.cls-2,.cls-3{stroke-width:0px;}.cls-4{isolation:isolate;}.cls-2{fill:#ee3124;}.cls-3{fill:#fff;}</style></defs><g class="cls-4"><g id="Layer_2"><g id="Graphic"><path class="cls-2" d="M230.6,456.75v-3.5c0-9.9-7.27-17.96-16.2-17.96s-16.19,8.06-16.19,17.96v3.5h-26.14v-3.5c0-9.9-7.27-17.96-16.2-17.96s-16.19,8.06-16.19,17.96v3.5h-23.59v-3.5c0-9.9-7.27-17.96-16.2-17.96s-16.19,8.06-16.19,17.96v3.5h-26.14v-3.5c0-9.9-7.27-17.96-16.2-17.96s-16.19,8.06-16.19,17.96v3.5H3.5V3.5h21.66v3.5c0,9.9,7.27,17.96,16.2,17.96s16.19-8.06,16.19-17.96v-3.5h26.14v3.5c0,9.9,7.27,17.96,16.2,17.96s16.19-8.06,16.19-17.96v-3.5h23.59v3.5c0,9.9,7.27,17.96,16.2,17.96s16.19-8.06,16.19-17.96v-3.5h26.14v3.5c0,9.9,7.27,17.96,16.2,17.96s16.19-8.06,16.19-17.96v-3.5h21.66v453.25h-21.66Z"/><path class="cls-1" d="M248.76,7v30.85h0v415.4h-14.66c0-11.85-8.82-21.46-19.7-21.46s-19.69,9.61-19.69,21.46h-19.14c0-11.85-8.82-21.46-19.7-21.46s-19.69,9.61-19.69,21.46h-16.59c0-11.85-8.83-21.46-19.7-21.46s-19.69,9.61-19.69,21.46h-19.14c0-11.85-8.82-21.46-19.7-21.46s-19.69,9.61-19.69,21.46H7V35.3h0V7h14.66c0,11.85,8.82,21.46,19.7,21.46s19.69-9.61,19.69-21.46h19.14c0,11.85,8.82,21.46,19.7,21.46s19.69-9.61,19.69-21.46h16.59c0,11.85,8.83,21.46,19.7,21.46s19.69-9.61,19.69-21.46h19.14c0,11.85,8.83,21.46,19.7,21.46s19.69-9.61,19.69-21.46h14.66M255.76,0h-28.66v7c0,7.97-5.69,14.46-12.69,14.46s-12.7-6.49-12.7-14.46V0h-33.14v7c0,7.97-5.69,14.46-12.69,14.46s-12.7-6.49-12.7-14.46V0h-30.59v7c0,7.97-5.69,14.46-12.69,14.46s-12.7-6.49-12.7-14.46V0h-33.14v7c0,7.97-5.69,14.46-12.69,14.46s-12.7-6.49-12.7-14.46V0H0v453.25s0,7,0,7h28.66v-7c0-7.97,5.69-14.46,12.69-14.46s12.7,6.49,12.7,14.46v7h33.14v-7c0-7.97,5.69-14.46,12.69-14.46s12.7,6.49,12.7,14.46v7h30.59v-7c0-7.97,5.69-14.46,12.69-14.46s12.7,6.49,12.7,14.46v7h33.14v-7c0-7.97,5.69-14.46,12.69-14.46s12.7,6.49,12.7,14.46v7h28.66V7s0-7,0-7h0Z"/><polygon class="cls-3" points="127.88 384.81 129.98 391.27 136.78 391.27 131.28 395.27 133.38 401.74 127.88 397.74 122.38 401.74 124.48 395.27 118.98 391.27 125.78 391.27 127.88 384.81"/><polygon class="cls-3" points="93.19 384.81 95.3 391.27 102.09 391.27 96.59 395.27 98.69 401.74 93.19 397.74 87.69 401.74 89.8 395.27 84.3 391.27 91.09 391.27 93.19 384.81"/><polygon class="cls-3" points="162.56 384.81 164.66 391.27 171.46 391.27 165.96 395.27 168.06 401.74 162.56 397.74 157.06 401.74 159.16 395.27 153.66 391.27 160.46 391.27 162.56 384.81"/><polygon class="cls-3" points="127.88 54.06 129.98 60.53 136.78 60.53 131.28 64.53 133.38 70.99 127.88 67 122.38 70.99 124.48 64.53 118.98 60.53 125.78 60.53 127.88 54.06"/><polygon class="cls-3" points="93.19 54.06 95.3 60.53 102.09 60.53 96.59 64.53 98.69 70.99 93.19 67 87.69 70.99 89.8 64.53 84.3 60.53 91.09 60.53 93.19 54.06"/><polygon class="cls-3" points="162.56 54.06 164.66 60.53 171.46 60.53 165.96 64.53 168.06 70.99 162.56 67 157.06 70.99 159.16 64.53 153.66 60.53 160.46 60.53 162.56 54.06"/><path class="cls-3" d="M181.7,232.55c-11.07-.95-22.16-1.61-33.26-1.98-.02-25.78-.04-51.57-.06-77.35h33.2c.01,8.78.03,17.56.04,26.35-4.21-.12-8.41-.23-12.62-.32,0-2.09,0-4.17,0-6.26-2.66-.04-5.31-.08-7.97-.12,0,3.16,0,6.32.01,9.47,3.26.06,6.52.14,9.77.22,0,6.6.02,13.2.03,19.8-3.26-.14-6.52-.26-9.78-.37,0,3.16,0,6.31.01,9.47,2.66.11,5.32.22,7.98.35,0-2.09,0-4.17,0-6.26,4.21.19,8.42.4,12.63.64.01,8.78.03,17.56.04,26.35ZM149.5,229.11c10.39.35,20.77.96,31.14,1.81-.01-7.75-.02-15.5-.03-23.24-3.5-.2-7.01-.39-10.51-.55,0,2.09,0,4.17,0,6.26-3.36-.17-6.72-.33-10.09-.46,0-4.16-.01-8.32-.01-12.48,3.26.1,6.52.22,9.78.35,0-5.58-.02-11.16-.02-16.74-3.26-.09-6.51-.16-9.77-.23,0-4.16,0-8.32-.01-12.48,3.36.04,6.72.09,10.08.14,0,2.09,0,4.18,0,6.26,3.5.07,7.01.16,10.51.25-.01-7.75-.02-15.5-.03-23.24-10.36-.02-20.73-.03-31.09-.04.02,24.8.04,49.59.06,74.39Z"/><path class="cls-3" d="M171.08,156.26c-6.86-.02-13.72-.03-20.58-.04,0,4.51,0,9.02.01,13.53.01,14.79.03,29.58.04,44.36,0,4.51,0,9.02.01,13.53,6.88.24,13.75.59,20.62,1.04,2.8.19,5.6.39,8.41.61,0-4.61-.01-9.22-.02-13.83,0-2.11,0-4.21,0-6.32-2.8-.16-5.6-.31-8.4-.45,0,2.09,0,4.18,0,6.27-4.07-.22-8.13-.41-12.2-.57,0-5.16-.01-10.33-.02-15.49,3.26.1,6.52.21,9.78.33,0-4.57-.01-9.15-.02-13.72,0,0-.01.02-.02.03-3.25-.09-6.5-.17-9.76-.23,0-5.16-.01-10.33-.02-15.49,4.06.04,8.13.09,12.19.15,0,2.09,0,4.18,0,6.27,2.8.06,5.6.12,8.4.19,0-2.1,0-4.2,0-6.3,0-4.62-.01-9.24-.02-13.85-2.8,0-5.6-.02-8.4-.02Z"/><path class="cls-3" d="M59.57,233.97c-7.96.87-15.92,1.9-23.85,3.08-1.99-2.78-3.97-5.58-5.96-8.41,0-5.92,0-11.85,0-17.77,4.56-.49,9.12-.95,13.69-1.37,0,1.73,0,3.46,0,5.19.09.12.17.25.26.37,2.63-.27,5.26-.52,7.9-.76.09-.14.18-.28.26-.42,0-3.05,0-6.09.01-9.14-.09-.12-.17-.25-.26-.37-5.3.41-10.59.85-15.89,1.35-1.99-2.89-3.98-5.81-5.97-8.76,0-11.47,0-22.93,0-34.4,2-3.14,4-6.25,5.99-9.33,7.98,0,15.95,0,23.93,0,1.99,2.96,3.99,5.9,5.98,8.82,0,5.6-.02,11.21-.02,16.81-4.58.15-9.16.31-13.73.49,0-1.72,0-3.44,0-5.15-.08-.12-.16-.24-.25-.36-2.65.08-5.29.17-7.94.26-.08.13-.17.26-.25.38,0,3.1,0,6.19,0,9.29.09.13.17.26.26.39,5.3-.27,10.6-.51,15.91-.73,1.99,2.88,3.99,5.74,5.98,8.59-.02,10.84-.03,21.68-.05,32.53-2,3.12-4,6.27-6,9.45ZM36.16,235.36c7.65-1.11,15.31-2.08,22.98-2.91,1.79-2.85,3.59-5.68,5.38-8.48.02-10.43.03-20.85.04-31.28-1.79-2.55-3.58-5.12-5.36-7.7-5.3.23-10.61.49-15.91.77-.29-.43-.59-.86-.88-1.29,0-3.54,0-7.09,0-10.63.29-.45.58-.9.87-1.34,2.94-.09,5.88-.18,8.81-.26.29.42.58.85.86,1.27,0,1.41,0,2.81,0,4.22,3.87-.14,7.75-.27,11.62-.39,0-4.88.01-9.76.02-14.64-1.79-2.62-3.58-5.25-5.37-7.91-7.68.02-15.37.04-23.05.06-1.79,2.76-3.59,5.55-5.38,8.37,0,10.99,0,21.99,0,32.98,1.79,2.64,3.57,5.26,5.36,7.86,5.29-.47,10.59-.91,15.89-1.3.29.42.59.84.88,1.25,0,3.48,0,6.96-.01,10.44-.29.47-.59.93-.88,1.4-2.93.27-5.85.56-8.77.87-.29-.42-.58-.83-.88-1.25,0-1.42,0-2.84,0-4.26-3.86.37-7.73.77-11.59,1.19,0,5.14,0,10.28,0,15.42,1.78,2.54,3.56,5.05,5.35,7.55Z"/><path class="cls-3" d="M63.53,175.81c0-4.15.01-8.3.02-12.45-1.58-2.32-3.17-4.65-4.75-7-3.7.02-7.39.03-11.09.05-3.7.02-7.39.04-11.09.06-1.59,2.45-3.17,4.91-4.76,7.4,0,7.11,0,14.22,0,21.34v.52c0,3.23,0,6.47,0,9.7,1.58,2.34,3.16,4.65,4.74,6.96,5.29-.46,10.59-.87,15.89-1.25.5.71,1,1.42,1.49,2.13,0,1.62,0,3.25,0,4.87,0,2.28,0,4.57,0,6.85-.5.79-1,1.59-1.5,2.38-3.22.31-6.43.63-9.64.98-.5-.71-1-1.41-1.49-2.12,0-1.11,0-2.21,0-3.32-3.16.32-6.32.65-9.48,1,0,4.36,0,8.72,0,13.08,1.58,2.25,3.16,4.47,4.73,6.69,7.36-1.04,14.73-1.95,22.11-2.74,1.59-2.52,3.17-5.03,4.76-7.51,0-5.33.02-10.66.02-15.99,0-1.6,0-3.21,0-4.81,0-3.08,0-6.15.01-9.23h0c-1.58-2.26-3.16-4.53-4.75-6.81-2.08.1-4.17.19-6.25.3-3.22.16-6.44.33-9.65.51-.5-.73-1-1.46-1.49-2.2,0-.17,0-.34,0-.51,0-3.82,0-7.65,0-11.47.49-.77.99-1.54,1.48-2.31,1.61-.05,3.23-.09,4.84-.14,1.61-.04,3.23-.09,4.84-.13.49.73.99,1.45,1.48,2.18,0,1.1,0,2.19,0,3.29,3.17-.11,6.34-.2,9.51-.3Z"/><path class="cls-3" d="M226,237.96c-4.89-.77-9.79-1.49-14.7-2.15-2.98-10.14-5.97-20.12-8.97-29.97-.59-.05-1.17-.09-1.76-.13.01,9.59.02,19.17.04,28.76-4.47-.52-8.94-1-13.42-1.42-.04-26.61-.08-53.22-.12-79.83,9.69,0,19.38,0,29.06,0,2,3.06,4,6.14,6,9.26,0,12.37,0,24.74.01,37.11-1.69,2.48-3.38,4.94-5.07,7.39,2.98,10.15,5.96,20.47,8.93,30.98ZM211.97,234.3c4.13.55,8.26,1.14,12.39,1.77-2.96-10.42-5.93-20.65-8.9-30.73.37.03.73.06,1.1.1,1.51-2.19,3.02-4.39,4.53-6.6,0-11.9,0-23.79-.01-35.69-1.79-2.8-3.58-5.56-5.38-8.31-9.19-.02-18.38-.05-27.57-.06.04,25.61.07,51.22.11,76.83,3.77.36,7.54.75,11.31,1.17-.01-9.57-.02-19.14-.04-28.71,1.16.08,2.32.17,3.49.26,2.99,9.85,5.98,19.83,8.97,29.98ZM208.6,187.2c-3.03-.16-6.07-.32-9.1-.46,0-4.87-.01-9.75-.02-14.62,3.04.08,6.07.17,9.11.26.29.45.59.91.88,1.36,0,4.06,0,8.12.01,12.18-.29.43-.59.86-.88,1.29ZM200.55,185.21c2.54.12,5.08.24,7.61.37.09-.13.18-.26.26-.39,0-3.61,0-7.23-.01-10.84-.09-.14-.17-.27-.26-.41-2.54-.08-5.08-.16-7.62-.24,0,3.83,0,7.67.01,11.5Z"/><path class="cls-3" d="M213.81,203.58c.77.06,1.54.13,2.31.2,1.31-1.89,2.61-3.79,3.92-5.71,0-2.44,0-4.88,0-7.33,0-.76,0-1.53,0-2.29,0-1.05,0-2.1,0-3.16,0-1.95,0-3.89,0-5.84,0-.7,0-1.39,0-2.09,0-4.53,0-9.06,0-13.58-1.59-2.47-3.17-4.92-4.76-7.35-8.69-.05-17.38-.09-26.07-.12,0,4.66.01,9.32.02,13.99.02,15.29.04,30.57.07,45.86,0,4.66.01,9.32.02,13.99,3.07.29,6.14.6,9.2.94,0-4.72-.01-9.44-.02-14.16,0-4.84-.01-9.68-.02-14.52,1.74.12,3.48.24,5.21.37,2.99,9.85,5.98,19.84,8.97,30,3.36.44,6.72.91,10.07,1.4-2.96-10.37-5.93-20.56-8.91-30.6ZM210.53,176.99c0,.68,0,1.37,0,2.05,0,1.92,0,3.83,0,5.75,0,.61,0,1.22,0,1.83-.5.73-1,1.46-1.5,2.19-3.53-.2-7.06-.38-10.59-.56,0-5.91-.02-11.83-.02-17.74,3.53.09,7.07.18,10.6.28.5.77,1,1.54,1.5,2.31,0,1.3,0,2.59,0,3.89Z"/><path class="cls-3" d="M123.3,230.25c-4.49.03-8.98.11-13.47.24.02-25.76.04-51.52.05-77.28,9.15,0,18.29,0,27.44,0,2,2.83,4,5.66,6,8.5,0,12.12.01,24.24.02,36.36-1.72,2.42-3.45,4.84-5.18,7.26-4.95-.06-9.91-.07-14.86-.05,0,8.32,0,16.64,0,24.97ZM110.89,228.97c3.78-.1,7.57-.17,11.36-.2,0-8.32,0-16.65,0-24.97,5.16-.03,10.32-.02,15.48.03,1.52-2.13,3.04-4.26,4.56-6.39,0-11.7-.01-23.4-.02-35.11-1.79-2.55-3.59-5.09-5.38-7.62-8.65,0-17.3,0-25.95,0-.02,24.75-.03,49.5-.05,74.25ZM129.75,187.34c-2.5,0-5,0-7.5.01,0-5.4,0-10.79,0-16.19,2.5,0,5,0,7.49,0,.29.42.59.83.88,1.25,0,4.56,0,9.13,0,13.69-.29.42-.59.83-.88,1.25ZM123.31,185.85c2,0,4,0,6,0,.09-.12.18-.25.27-.37,0-4.15,0-8.3,0-12.45-.09-.12-.18-.25-.26-.37-2,0-4,0-6,0,0,4.4,0,8.8,0,13.2Z"/><path class="cls-3" d="M136.45,156.21c-8.15,0-16.3,0-24.45,0-.01,23.74-.03,47.49-.04,71.23,3.08-.08,6.16-.13,9.24-.16,0-8.32,0-16.65,0-24.97,5.37-.04,10.73-.03,16.1.02,1.31-1.84,2.63-3.69,3.94-5.53,0-11.29-.01-22.57-.02-33.86-1.59-2.25-3.18-4.5-4.76-6.75ZM131.69,175.42c0,.64,0,1.28,0,1.92,0,1.28,0,2.55,0,3.83,0,1.85,0,3.7,0,5.54-.5.71-1,1.41-1.5,2.12-3,0-5.99,0-8.99.01,0-6.39,0-12.78,0-19.18,3,0,5.99,0,8.99,0,.5.71,1,1.41,1.5,2.12,0,1.21,0,2.42,0,3.63Z"/><path class="cls-3" d="M99.04,230.9c-7.99.37-15.98.89-23.96,1.56-1.99-2.74-3.99-5.49-5.98-8.25.03-23.67.07-47.33.1-71,4.58,0,9.16,0,13.74,0-.03,19.47-.05,38.95-.08,58.42.09.12.17.24.26.37,2.64-.14,5.28-.27,7.93-.39l.26-.39c.02-19.34.05-38.67.07-58.01,4.58,0,9.16,0,13.74,0-.02,22.97-.04,45.94-.06,68.91-2,2.91-4.01,5.83-6.02,8.77ZM75.52,230.89c7.69-.63,15.39-1.12,23.09-1.48,1.8-2.64,3.6-5.26,5.4-7.87.02-22.27.04-44.55.06-66.82-3.88,0-7.75,0-11.63.01-.02,19.03-.05,38.05-.07,57.08-.29.43-.59.87-.88,1.3-2.93.13-5.87.28-8.8.44-.29-.41-.59-.82-.88-1.22.03-19.2.05-38.39.08-57.58-3.88,0-7.75.01-11.63.02-.03,22.91-.07,45.82-.1,68.73,1.79,2.48,3.58,4.94,5.37,7.4Z"/><path class="cls-3" d="M93.49,156.24c0,4.4-.01,8.79-.02,13.19v12.39c-.02,3.46-.02,6.92-.03,10.38,0,3.24,0,6.48-.01,9.72,0,.22,0,.44,0,.66,0,2.04,0,4.08,0,6.12,0,1.23,0,2.45,0,3.68-.5.74-1,1.47-1.5,2.21-3.23.15-6.45.31-9.68.5-.5-.69-1-1.39-1.5-2.08,0-2.21,0-4.42,0-6.63.01-7.77.02-15.54.03-23.31,0-4.49.01-8.98.02-13.47,0-4.44.01-8.89.02-13.33-3.17,0-6.34.02-9.52.03,0,4.49-.01,8.97-.02,13.46,0,4.54-.01,9.07-.02,13.61-.01,7.85-.02,15.7-.03,23.55,0,5.28-.02,10.56-.02,15.84,1.58,2.19,3.17,4.38,4.75,6.56,7.4-.59,14.8-1.06,22.21-1.39,1.59-2.34,3.18-4.66,4.78-6.97,0-4.19,0-8.38.01-12.57,0-2.03,0-4.06,0-6.09,0-.22,0-.44,0-.66,0-3.22,0-6.44,0-9.66,0-3.44,0-6.88,0-10.32,0-4.11,0-8.21.01-12.32,0-4.37,0-8.74.01-13.11-3.17,0-6.35.01-9.52.02Z"/><path class="cls-3" d="M157.14,331.68h-12.93c.02-29,.03-58,.05-87,4.32.15,8.64.37,12.96.64-.03,28.79-.05,57.58-.08,86.36ZM145.22,330c3.63,0,7.27,0,10.9.01.02-27.69.05-55.39.07-83.08-3.64-.22-7.28-.39-10.92-.53-.02,27.87-.03,55.73-.05,83.6Z"/><path class="cls-3" d="M155.18,248.55c-2.96-.17-5.92-.31-8.89-.42,0,4.9,0,9.8,0,14.7-.01,16.93-.02,33.85-.03,50.78,0,4.9,0,9.8,0,14.7,2.96,0,5.91.01,8.87.02,0-4.88,0-9.75.01-14.63.01-16.84.03-33.68.04-50.52,0-4.88,0-9.75.01-14.63Z"/><path class="cls-3" d="M84.36,331.68h-14.47c-.02-21-.03-42.01-.05-63.01-4.83.46-9.65.98-14.47,1.55v-20.12c14.41-2.28,28.91-3.88,43.43-4.79,0,7.1.01,14.2.02,21.31-4.85.23-9.69.52-14.53.86.02,21.4.04,42.81.06,64.21ZM71.02,330.06c4.07,0,8.13-.02,12.2-.03-.02-21.38-.04-42.75-.06-64.13,4.84-.36,9.68-.67,14.53-.91,0-5.98-.01-11.96-.02-17.94-13.77.88-27.5,2.37-41.17,4.46,0,5.67,0,11.33,0,17,4.82-.58,9.64-1.1,14.47-1.56.02,21.04.03,42.08.05,63.12Z"/><path class="cls-3" d="M57.63,252.92c0,4.62,0,9.24,0,13.86,4.82-.58,9.64-1.11,14.47-1.57.02,21.07.04,42.15.05,63.22,3.31-.02,6.61-.03,9.92-.04-.02-21.35-.04-42.7-.06-64.05,4.84-.38,9.68-.7,14.52-.96,0-4.86,0-9.72-.01-14.59-13,.85-25.98,2.22-38.9,4.13Z"/><path class="cls-3" d="M141.04,331.68h-14.22c-2.88-10.3-5.75-20.6-8.64-30.86-.57,0-1.13,0-1.7.01,0,10.28,0,20.57.01,30.85h-12.93c-.02-28.88-.05-57.77-.07-86.65,9.35-.49,18.7-.7,28.06-.63,1.93,3.22,3.86,6.45,5.78,9.68,0,12.82,0,25.64-.01,38.46-1.64,2.7-3.27,5.41-4.91,8.13,2.88,10.35,5.75,20.69,8.62,31.01ZM127.47,329.99c3.99,0,7.99,0,11.98,0-2.86-10.28-5.72-20.59-8.59-30.9.35,0,.71,0,1.06,0,1.46-2.43,2.93-4.85,4.39-7.27,0-12.35,0-24.71.01-37.06-1.73-2.9-3.46-5.79-5.19-8.68-8.88-.06-17.75.13-26.62.57.02,27.78.04,55.56.06,83.34,3.63,0,7.27,0,10.9,0,0-10.28,0-20.56-.01-30.84,1.12-.01,2.24-.02,3.36-.03,2.88,10.27,5.76,20.57,8.64,30.86ZM124.25,280.46c-2.93.01-5.86.04-8.79.09,0-5.24,0-10.47,0-15.71,2.93-.06,5.86-.1,8.8-.12.28.47.57.94.85,1.41,0,4.3,0,8.6,0,12.91-.28.47-.57.95-.85,1.42ZM116.48,278.85c2.45-.04,4.9-.06,7.35-.07.09-.14.17-.28.26-.43,0-3.84,0-7.67,0-11.51-.08-.14-.17-.28-.25-.42-2.45.02-4.9.05-7.36.09,0,4.11,0,8.22,0,12.33Z"/><path class="cls-3" d="M129.27,297.4c.74,0,1.49,0,2.23,0,1.26-2.1,2.53-4.19,3.79-6.28,0-2.54,0-5.08,0-7.62,0-.79,0-1.59,0-2.38,0-1.09,0-2.19,0-3.28,0-2.03,0-4.05,0-6.08,0-.72,0-1.45,0-2.17,0-4.71,0-9.42,0-14.13-1.53-2.56-3.06-5.12-4.59-7.67-8.39-.05-16.79.12-25.18.51,0,5.05,0,10.11.01,15.16.01,16.57.02,33.14.04,49.71,0,5.05,0,10.11.01,15.16,2.96,0,5.91-.01,8.87-.01,0-5.07,0-10.15,0-15.22,0-5.2,0-10.41,0-15.61,1.68-.02,3.35-.03,5.03-.05,2.88,10.27,5.76,20.57,8.64,30.87,3.25,0,6.5,0,9.74,0-2.86-10.29-5.73-20.6-8.59-30.9ZM126.12,269.55c0,.72,0,1.45,0,2.17,0,2.03,0,4.05,0,6.08,0,.65,0,1.29,0,1.94-.48.8-.97,1.61-1.45,2.41-3.41.01-6.82.05-10.23.1,0-6.36,0-12.72,0-19.08,3.41-.08,6.82-.13,10.24-.14.48.8.96,1.6,1.45,2.4,0,1.37,0,2.74,0,4.11Z"/><path class="cls-3" d="M178.73,331.68h-14.55c.03-28.62.06-57.24.08-85.86,9.91.78,19.8,1.88,29.66,3.3,2.15,3.34,4.3,6.66,6.46,9.96v38.42c-1.86,2.46-3.72,4.95-5.59,7.47-5.34-.25-10.69-.47-16.04-.67,0,9.13-.02,18.25-.03,27.38ZM165.33,330.02c4.09,0,8.17.01,12.26.02,0-9.14.02-18.28.03-27.42,5.57.21,11.14.45,16.71.72,1.64-2.22,3.28-4.41,4.92-6.58,0-12.4,0-24.79,0-37.19-1.93-2.96-3.86-5.93-5.79-8.92-9.32-1.31-18.68-2.33-28.05-3.08-.03,27.48-.05,54.96-.08,82.45ZM185.73,285.08c-2.7-.19-5.4-.36-8.1-.53,0-5.93.01-11.85.02-17.78,2.7.22,5.4.47,8.1.73.32.48.63.96.95,1.44,0,4.95,0,9.9-.01,14.85-.32.43-.64.86-.96,1.29ZM178.78,282.99c2.16.14,4.32.28,6.48.44.1-.13.19-.26.29-.39,0-4.51,0-9.02.01-13.53-.09-.14-.19-.29-.28-.43-2.16-.2-4.32-.39-6.48-.57,0,4.83,0,9.65-.01,14.48Z"/><path class="cls-3" d="M192.99,252.19c-8.79-1.2-17.6-2.15-26.43-2.86-.03,26.35-.05,52.69-.08,79.04,3.32.01,6.65.02,9.97.04,0-9.15.02-18.31.03-27.46,5.8.22,11.59.48,17.38.78,1.42-1.91,2.84-3.81,4.25-5.69,0-11.99,0-23.97,0-35.96-1.71-2.62-3.42-5.25-5.13-7.89ZM187.84,272.32c0,.69,0,1.38,0,2.08,0,1.38,0,2.77,0,4.15,0,2,0,4,0,6-.54.73-1.08,1.46-1.62,2.19-3.24-.22-6.47-.42-9.71-.61,0-7.03.01-14.06.02-21.09,3.24.27,6.48.56,9.71.89.54.82,1.08,1.64,1.62,2.46,0,1.31,0,2.62,0,3.93Z"/><path class="cls-3" d="M44.69,100.88v5.95h-6.06v-5.95l-6.01-11.21h6.03l1.82,3.93,1.22,3.12,1.22-3.12,1.82-3.93h5.95l-6.01,11.21Z"/><path class="cls-3" d="M69,98.25c0,5.62-3.25,8.84-8.71,8.84s-8.74-3.22-8.74-8.84,3.3-8.84,8.74-8.84,8.71,3.22,8.71,8.84ZM57.75,98.25c0,2.99.78,4.29,2.55,4.29s2.52-1.3,2.52-4.29-.75-4.29-2.52-4.29-2.55,1.3-2.55,4.29Z"/><path class="cls-3" d="M88.82,99.45c0,5.12-2.76,7.64-8.29,7.64s-8.29-2.52-8.29-7.64v-9.78h6.08v10.25c0,1.74.78,2.63,2.21,2.63s2.24-.88,2.24-2.63v-10.25h6.06v9.78Z"/><path class="cls-3" d="M100.18,101.14h-1.66v5.69h-5.93v-17.16h9.31c4.58,0,6.94,1.92,6.94,5.75,0,2.52-1.04,4.21-3.09,5.07l4.06,6.34h-6.58l-3.04-5.69ZM98.51,97.16h2.16c1.53,0,2.11-.42,2.11-1.59s-.57-1.59-2.11-1.59h-2.16v3.17Z"/><path class="cls-3" d="M136.29,94.12h-5.36v12.71h-6.06v-12.71h-5.38v-4.45h16.8v4.45Z"/><path class="cls-3" d="M145.73,106.83h-6.06v-17.16h6.06v17.16Z"/><path class="cls-3" d="M158.08,107.09c-5.43,0-8.74-3.22-8.74-8.84s3.3-8.84,8.74-8.84c3.77,0,7.07,1.53,7.8,5.2l-5.2,2.03c-.29-2.24-1.01-2.68-2.44-2.68-1.79,0-2.7,1.33-2.7,4.29s.83,4.29,2.65,4.29c1.66,0,2.26-.7,2.47-2.34l5.36,1.38c-.96,4.03-4,5.51-7.93,5.51Z"/><path class="cls-3" d="M176.51,100.41l-1.4,1.92v4.5h-6.06v-17.16h6.06v6.4l4.47-6.4h6.45l-5.25,6.81,5.72,10.35h-6.79l-3.2-6.42Z"/><path class="cls-3" d="M203.81,102.39v4.45h-14.56v-17.16h14.25v4.45h-8.19v2.13h6.6v4.11h-6.6v2.03h8.5Z"/><path class="cls-3" d="M223.1,94.12h-5.36v12.71h-6.06v-12.71h-5.38v-4.45h16.8v4.45Z"/><path class="cls-3" d="M79.41,120.12h-5.36v12.71h-6.06v-12.71h-5.38v-4.45h16.8v4.45Z"/><path class="cls-3" d="M98.91,124.25c0,5.62-3.25,8.84-8.71,8.84s-8.74-3.22-8.74-8.84,3.3-8.84,8.74-8.84,8.71,3.22,8.71,8.84ZM87.66,124.25c0,2.99.78,4.29,2.55,4.29s2.52-1.3,2.52-4.29-.75-4.29-2.52-4.29-2.55,1.3-2.55,4.29Z"/><path class="cls-3" d="M120.23,132.83h-6.66l-4.86-17.16h6.53l2,12.4,2.42-12.4h5.2l2.55,12.33,1.95-12.33h6.29l-4.89,17.16h-6.42l-1.35-6.45-.68-4.39h-.08l-.68,4.39-1.33,6.45Z"/><path class="cls-3" d="M144.39,132.83h-6.06v-17.16h6.06v17.16Z"/><path class="cls-3" d="M165.34,132.83h-6.55l-4.11-7.8-.94-2.11h-.05l.1,3.54v6.37h-5.25v-17.16h6.55l4.11,7.83.94,2.08h.05l-.1-3.54v-6.37h5.25v17.16Z"/><path class="cls-3" d="M187.21,129.56h-4.63l-.81,3.28h-6.03l5.56-17.16h7.28l5.59,17.16h-6.19l-.78-3.28ZM186.33,125.79l-1.38-5.72h-.08l-.68,2.91-.7,2.81h2.83Z"/><path class="cls-3" d="M48.65,360.03c0,5.18-3,8.16-8.04,8.16s-8.06-2.98-8.06-8.16,3.05-8.16,8.06-8.16,8.04,2.98,8.04,8.16ZM38.25,360.03c0,2.76.72,3.96,2.35,3.96s2.33-1.2,2.33-3.96-.7-3.96-2.33-3.96-2.35,1.2-2.35,3.96Z"/><path class="cls-3" d="M57.57,356.21v2.21h6.1v4.1h-6.1v5.42h-5.59v-15.84h13.13v4.1h-7.54Z"/><path class="cls-3" d="M84.5,364.93h-4.27l-.74,3.02h-5.57l5.14-15.84h6.72l5.16,15.84h-5.71l-.72-3.02ZM83.68,361.45l-1.27-5.28h-.07l-.62,2.69-.65,2.59h2.62Z"/><path class="cls-3" d="M113.3,363.85v4.1h-12.77v-15.84h5.59v11.74h7.18Z"/><path class="cls-3" d="M122.08,367.95h-5.59v-15.84h5.59v15.84Z"/><path class="cls-3" d="M131.52,356.21v2.21h6.1v4.1h-6.1v5.42h-5.59v-15.84h13.13v4.1h-7.54Z"/><path class="cls-3" d="M155.54,363.85v4.1h-13.44v-15.84h13.15v4.1h-7.56v1.97h6.1v3.79h-6.1v1.87h7.85Z"/><path class="cls-3" d="M173.35,356.21h-4.94v11.74h-5.59v-11.74h-4.97v-4.1h15.5v4.1Z"/><path class="cls-3" d="M182.06,367.95h-5.59v-15.84h5.59v15.84Z"/><path class="cls-3" d="M206.25,367.95h-4.87v-5.5l.07-5.33h-.07l-3.07,10.83h-4.46l-3.02-10.83h-.1l.07,5.33v5.5h-4.9v-15.84h7.82l1.82,7.03.7,2.95h.05l.7-2.95,1.82-7.03h7.44v15.84Z"/><path class="cls-3" d="M223.53,363.85v4.1h-13.44v-15.84h13.15v4.1h-7.56v1.97h6.1v3.79h-6.1v1.87h7.85Z"/></g></g></g></svg>