<?xml version="1.0" encoding="UTF-8"?><svg id="Layer_1" xmlns="http://www.w3.org/2000/svg" viewBox="0 0 1036.4 219.31"><defs><style>.cls-1{fill:#fff;fill-rule:evenodd;stroke-width:0px;}</style></defs><polygon id="Fill-29" class="cls-1" points="194.58 4.36 162.61 215.78 88.51 215.78 119.76 4.36 194.58 4.36"/><polygon id="Fill-30" class="cls-1" points="30.95 4.36 0 215.77 73.81 215.77 105.78 4.36 30.95 4.36"/><g id="Group-35"><path id="Fill-31" class="cls-1" d="M746.46,217.06L819.8,7.55h63.13l13.78,207.61h-53.07l-.12-28.31h-34.03l-10.74,30.19-52.29.02ZM823.48,142.71l16.81-.02-.36-67.21-16.46,67.23ZM495.47,215.38l54.35.16,9.76-68.63c2.11,0,4.24.31,6.34.31,44.2,0,81.15-16.81,84.19-69.84,3.57-62.26-32.23-69.81-50.15-71.72h-71.65l-32.85,209.73ZM576.83,52.85h1.6c10.6,0,19.73,1.88,19.73,18.87s-10.79,27.23-24.2,27.23c-.93,0-2.58,0-4.47-.29l7.33-45.8ZM905.12,215.54L938.33,7.55h53.48l-24.72,160.41h44.77l-7.13,47.2-99.61.38ZM644.11,148.39l-7.97,56.75c9.4,8.43,24.44,14.33,41.59,14.17,42.23-.38,81.62-24.9,81.62-70.21,0-33.96-18.72-40.92-31.17-56.61-8.92-11.46-13.62-18.06-13.62-28.31,0-8.76,7.19-13.21,10.77-13.21,8.46,0,26.04,3.52,36.39,12.87l6.59-52.51c-12.93-8.46-34.02-11.33-48.36-11.33-35.52,0-62.68,39.63-62.68,66.06,0,21.43,6.27,34.35,19.69,50.96,10.35,12.66,24.22,18.58,24.22,30.65,0,11.17-5.87,18.41-15.26,18.41-9.87,0-30.75-5.91-41.81-17.69ZM426.24,215.54L456.68,3.77h57.32l-34.05,211.76h-53.72ZM316.64,215.16h98.87l8.94-52.85h-42.97L404.75,4.92h-54.74l-33.37,210.24ZM325.95,60.39c-5.17-3.32-9.87-4.35-15.27-4.35-21.17,0-45.62,23.18-45.62,66.63,0,30.2,8.96,44.17,29.12,43.71,4.22-.09,8.5-.31,14.58-.31l-6.08,45.31c-10.76,5.65-23.28,5.65-23.28,5.65-34.03,0-69.53-25.21-69.53-78.92C209.86,54.84,256.13,1.25,306.91,1.25c9.39,0,18.1,2.1,26.32,6.04l-7.28,53.11Z"/><path id="Fill-33" class="cls-1" d="M1009.5,21.34c0-8.02,6.19-13.94,13.5-13.94s13.4,5.92,13.4,13.94-6.18,14.03-13.4,14.03-13.5-5.92-13.5-14.03ZM1023.01,33.04c5.98,0,10.73-4.96,10.73-11.7s-4.75-11.61-10.73-11.61-10.83,4.99-10.83,11.61,4.72,11.7,10.83,11.7ZM1020.18,29.46h-2.33V13.32h5.84c3.62,0,5.4,1.41,5.4,4.59,0,2.89-1.73,4.14-3.98,4.44l4.36,7.11h-2.58l-4.04-7h-2.67v7ZM1022.96,20.39c1.96,0,3.72-.14,3.72-2.63,0-1.99-1.73-2.37-3.34-2.37h-3.16v5h2.78Z"/></g></svg>