<?xml version="1.0" encoding="UTF-8"?><svg id="Logo" xmlns="http://www.w3.org/2000/svg" viewBox="0 0 246.31 127.69"><defs><style>.cls-1{fill:#ee3124;}.cls-1,.cls-2{stroke-width:0px;}.cls-2{fill:#fff;}</style></defs><path class="cls-1" d="M24.78,68.87l30.27-41.05,8.01-1.31s-3.72,2.62-9.11,10.26c-5.38,7.65-13.06,18.56-16.63,22.45-3.82,4.16-8.97,8.29-12.53,9.64h-.01Z"/><path class="cls-2" d="M17.07,79.53c-7.54.91-12-1.79-15.15-6.98-3.15-5.18-3.06-15.68,6.61-26.41,9.62-10.67,18.21-15.3,25.27-15.39,7.06-.1,9.81,2.57,10.36,6.83,0,0-4.17-4.95-12.32-1.38-8.15,3.57-18.31,13.77-20.16,22.46-1.85,8.69,5.62,13.45,13.08,10.22l-7.7,10.65h0Z"/><path class="cls-1" d="M17.09,79.52c8.89-1.37,19.66-11.2,34.38-35.12,8.76-14.23,9.7-10.13,9.74-7.2.12,8.72-7.5,43.94,1.35,44.23l-45.47-1.9h0Z"/><path class="cls-1" d="M67.76,25.83c2.05.74,5.22,2.37,4.35,8.31-.87,5.94-3.25,28.25-3.17,33.36.07,5.11,3.69,3.13,5.78-1.36,2.09-4.49,17.48-33.97,33.02-46.1l-39.98,5.79h0Z"/><path class="cls-1" d="M74.66,81.83l-9.72-.38c5.37-1.32,7.29-3.21,10.93-10.45,4.98-9.89,18.1-31.95,22.97-36.95,4.87-5.01,5.7-4.46,6.6-3.58l-30.79,51.37h0Z"/><path class="cls-2" d="M105.45,30.46l6.62-11.04c3.2-.04,4.47,2.32,4.53,6.74.06,4.43-3.06,27.64-2.93,36.94.13,9.3,1.98,12.09,5.96,5.07,3.98-7.02,28.29-45.71,39.09-53.27,9.23-6.46,14.23-.8,13.38,7.5-.84,8.3-4.97,40.96-3.6,47.44,1.37,6.48,5.66.97,8.09-2.98,2.44-3.94,31.77-54,47.36-63.63l22.29-3.23c-7.97,3.19-25.86,9.08-39.04,27.61-12.48,17.53-23.6,33.68-31.95,48.55-8.35,14.87-17.16,14.29-19.82,4.23-2.66-10.05,3.69-44.44,3.59-51.22-.09-6.78-2.52-4.85-7-1.28-7.23,5.76-28.97,40.83-34.93,51.15-6.1,10.56-13.48,5.82-14.58-3.02-1.1-8.84,3.97-40.46,2.94-45.55h0Z"/><rect class="cls-1" y="96.02" width="246.31" height="31.67"/><path class="cls-2" d="M81.75,109.78c-.64-.37-1.41-.55-2.32-.55s-1.67.18-2.36.56c-.69.37-1.22.9-1.61,1.6-.38.69-.57,1.53-.57,2.51s.19,1.82.57,2.51c.38.69.92,1.23,1.62,1.6.7.37,1.52.56,2.47.56.61,0,1.18-.09,1.71-.26.53-.17.99-.43,1.38-.76.39-.34.68-.74.87-1.2l-1.96-.75c-.18.36-.43.64-.75.84-.32.2-.75.31-1.27.31-.48,0-.89-.1-1.23-.31-.34-.2-.6-.51-.79-.92-.11-.24-.17-.52-.22-.84h6.33c.02-.17.04-.36.05-.57.01-.22.02-.44.02-.68,0-.8-.17-1.52-.5-2.14-.34-.63-.82-1.13-1.45-1.49ZM78.24,111.37c.33-.22.72-.32,1.18-.32.62,0,1.1.2,1.44.61.27.32.43.76.49,1.31h-4.02c.04-.23.09-.45.17-.64.17-.43.42-.75.74-.96Z"/><path class="cls-2" d="M91.45,116c-.16.24-.37.42-.62.55-.25.13-.56.19-.92.19-.44,0-.83-.1-1.16-.31-.33-.2-.58-.51-.75-.93s-.26-.95-.26-1.58.08-1.16.25-1.59c.17-.43.41-.74.74-.95.32-.21.71-.31,1.17-.31.49,0,.88.14,1.17.41.29.27.49.68.61,1.22l2.3-.83c-.14-.49-.39-.94-.73-1.34-.34-.4-.79-.72-1.35-.95-.56-.23-1.24-.35-2.04-.35-.9,0-1.69.18-2.39.56-.69.37-1.23.9-1.62,1.6-.38.69-.57,1.53-.57,2.51s.19,1.82.57,2.51c.38.69.93,1.23,1.63,1.6.71.37,1.52.56,2.44.56.74,0,1.39-.11,1.96-.34.56-.23,1.02-.54,1.38-.95.36-.41.6-.88.74-1.42l-2.23-.72c-.06.34-.17.62-.33.86Z"/><path class="cls-2" d="M108.71,109.23c-.69,0-1.27.17-1.73.5-.46.34-.81.81-1.05,1.44l-.16-1.76h-2.14v8.97h2.46v-4.65c0-.54.11-.98.32-1.34.22-.35.49-.62.83-.79.33-.17.68-.26,1.04-.26.27,0,.5.01.67.04.17.02.32.06.44.11l.29-2.06c-.11-.06-.25-.11-.41-.14-.17-.04-.35-.05-.56-.05Z"/><rect class="cls-2" x="111.2" y="109.41" width="2.46" height="8.97"/><path class="cls-2" d="M112.44,105.48c-.51,0-.9.11-1.15.33-.25.22-.38.55-.38,1s.13.76.38.98c.25.22.64.33,1.15.33s.9-.11,1.15-.33c.25-.22.38-.55.38-.98s-.13-.77-.38-1c-.25-.22-.64-.33-1.15-.33Z"/><path class="cls-2" d="M101.13,116.57c-.22.09-.49.13-.8.13-.38,0-.69-.1-.91-.3-.22-.2-.33-.51-.33-.94v-4.22h2.87v-1.83h-2.87v-2.75l-2.46.68v2.06h-1.65v1.83h1.65v4.61c0,.66.13,1.18.39,1.58.26.39.62.68,1.08.86.46.18.99.27,1.59.27.48,0,.93-.07,1.36-.2.43-.13.79-.31,1.08-.54l-.39-1.63c-.18.16-.38.28-.6.37Z"/><polygon class="cls-2" points="30.45 113.4 30.53 115.44 30.49 115.44 29.47 113.49 25.32 106.54 22.5 106.54 22.5 118.39 24.73 118.39 24.73 111.53 24.66 109.49 24.68 109.49 25.7 111.42 29.84 118.39 32.68 118.39 32.68 106.54 30.45 106.54 30.45 113.4"/><path class="cls-2" d="M17.11,116.02c-.47.35-1.03.52-1.68.52-.69,0-1.28-.16-1.76-.47s-.84-.77-1.09-1.38c-.25-.61-.37-1.35-.37-2.23s.13-1.63.39-2.23c.26-.6.64-1.06,1.12-1.37.48-.31,1.05-.47,1.7-.47s1.2.15,1.62.46.73.82.93,1.53l2.24-.95c-.22-.68-.55-1.25-1.01-1.71-.46-.46-1.02-.8-1.68-1.02-.66-.22-1.39-.33-2.21-.33-1.15,0-2.15.25-3.01.74-.85.49-1.51,1.19-1.97,2.1-.46.91-.69,2-.69,3.27s.23,2.36.69,3.27c.46.91,1.12,1.61,1.97,2.1.86.49,1.87.74,3.04.74.8,0,1.54-.13,2.21-.38s1.25-.63,1.74-1.15c.49-.52.85-1.15,1.08-1.92l-2.28-.68c-.19.71-.52,1.23-1,1.58Z"/><path class="cls-2" d="M73.03,116.75c-.34,0-.57-.08-.72-.25-.14-.17-.22-.46-.22-.88v-10.14h-2.46v10.41c0,.93.2,1.61.6,2.04.4.42,1.04.64,1.91.64.3,0,.6-.03.91-.1.31-.07.56-.16.76-.28l.22-1.62c-.2.06-.37.1-.5.14-.13.03-.3.04-.5.04Z"/><polygon class="cls-2" points="46.68 116.32 44.28 106.54 41.91 106.54 39.54 116.32 37.2 106.54 34.57 106.54 38.01 118.39 40.86 118.39 42.5 111.93 43.05 109.13 43.09 109.13 43.65 111.93 45.3 118.39 48.08 118.39 51.53 106.54 49 106.54 46.68 116.32"/><polygon class="cls-2" points="61.04 113.38 66.08 113.38 66.08 111.48 61.04 111.48 61.04 108.53 67.45 108.53 67.45 106.54 58.56 106.54 58.56 118.39 67.7 118.39 67.7 116.4 61.04 116.4 61.04 113.38"/><path class="cls-2" d="M225.98,116.75c-.34,0-.57-.08-.72-.25-.14-.17-.22-.46-.22-.88v-10.14h-2.46v10.41c0,.93.2,1.61.6,2.04.4.42,1.04.64,1.91.64.3,0,.6-.03.91-.1.31-.07.56-.16.76-.28l.22-1.62c-.2.06-.37.1-.5.14-.13.03-.3.04-.5.04Z"/><path class="cls-2" d="M190.03,116.75c-.34,0-.57-.08-.72-.25-.14-.17-.22-.46-.22-.88v-10.14h-2.46v10.41c0,.93.2,1.61.6,2.04.4.42,1.04.64,1.91.64.3,0,.6-.03.91-.1.31-.07.56-.16.76-.28l.22-1.62c-.2.06-.37.1-.5.14-.13.03-.3.04-.5.04Z"/><path class="cls-2" d="M207.89,113.15l-1.83-.38c-.44-.1-.75-.21-.92-.35-.17-.14-.25-.3-.25-.49s.06-.35.18-.47c.12-.13.3-.23.54-.3.24-.07.53-.11.86-.11.47,0,.91.11,1.34.33.43.22.77.54,1.03.96l1.47-1.44c-.38-.55-.91-.97-1.57-1.25-.66-.28-1.44-.42-2.34-.42s-1.6.14-2.19.4c-.59.27-1.03.62-1.32,1.05-.29.43-.44.89-.44,1.38,0,.69.22,1.26.65,1.7.44.44,1.18.76,2.22.98l1.58.32c.39.08.66.19.79.33.13.14.2.3.2.49,0,.3-.14.52-.42.66-.28.14-.65.21-1.12.21-.66,0-1.23-.14-1.71-.41-.48-.27-.86-.63-1.15-1.06l-1.42,1.44c.47.59,1.07,1.04,1.82,1.36.75.32,1.58.48,2.49.48.86,0,1.59-.13,2.18-.39.59-.26,1.04-.61,1.35-1.06.31-.45.46-.96.46-1.54s-.19-1.11-.57-1.53c-.38-.43-1.02-.73-1.9-.91Z"/><path class="cls-2" d="M198.76,109.78c-.64-.37-1.41-.55-2.32-.55s-1.67.18-2.36.56c-.69.37-1.22.9-1.61,1.6-.38.69-.57,1.53-.57,2.51s.19,1.82.57,2.51c.38.69.92,1.23,1.62,1.6.7.37,1.52.56,2.47.56.61,0,1.18-.09,1.71-.26.53-.17.99-.43,1.38-.76.39-.34.68-.74.87-1.2l-1.96-.75c-.18.36-.43.64-.75.84-.32.2-.75.31-1.27.31-.48,0-.89-.1-1.23-.31-.34-.2-.6-.51-.79-.92-.11-.24-.17-.52-.22-.84h6.33c.02-.17.04-.36.05-.57.01-.22.02-.44.02-.68,0-.8-.17-1.52-.5-2.14-.34-.63-.82-1.13-1.45-1.49ZM195.25,111.37c.33-.22.72-.32,1.18-.32.62,0,1.1.2,1.44.61.27.32.43.76.49,1.31h-4.02c.04-.23.09-.45.17-.64.17-.43.42-.75.74-.96Z"/><path class="cls-2" d="M219.88,116.2v-3.64c0-.74-.17-1.36-.49-1.85-.33-.49-.79-.86-1.37-1.1-.59-.25-1.27-.37-2.06-.37-1.16,0-2.08.24-2.77.72-.69.48-1.13,1.11-1.34,1.9l2.1.65c.15-.53.4-.9.74-1.13.33-.23.72-.34,1.17-.34.48,0,.86.14,1.16.43.29.29.44.69.44,1.2v.35l-3.09.62c-.8.16-1.42.45-1.85.87-.43.42-.65.97-.65,1.64,0,.53.12.97.36,1.33.24.36.58.63,1.02.82.44.18.97.28,1.58.28.49,0,.97-.08,1.43-.25.46-.17.85-.41,1.18-.73.11-.1.18-.23.26-.35.05.16.11.31.19.44.19.29.45.51.79.65.33.14.71.22,1.13.22.47,0,.85-.08,1.17-.23l.14-1.53c-.18.06-.37.09-.57.09-.43,0-.65-.23-.65-.68ZM217.28,115.91c-.11.23-.26.41-.45.54-.19.13-.41.23-.65.29-.24.06-.48.09-.74.09-.31,0-.58-.08-.8-.23-.22-.16-.33-.38-.33-.68s.1-.54.31-.67c.21-.14.52-.25.93-.33l1.88-.38v.56c0,.32-.05.6-.16.83Z"/><path class="cls-2" d="M236.16,111.27c-.33-.63-.82-1.13-1.45-1.49-.63-.37-1.41-.55-2.32-.55s-1.67.18-2.36.56c-.69.37-1.22.9-1.61,1.6-.38.69-.57,1.53-.57,2.51s.19,1.82.57,2.51c.38.69.93,1.23,1.62,1.6.7.37,1.52.56,2.47.56.61,0,1.18-.09,1.71-.26.53-.17.99-.43,1.38-.76.39-.34.68-.74.87-1.2l-1.96-.75c-.18.36-.43.64-.75.84-.32.2-.75.31-1.27.31-.48,0-.89-.1-1.23-.31-.34-.2-.6-.51-.79-.92-.11-.24-.17-.52-.22-.84h6.33c.02-.17.04-.36.05-.57.01-.22.02-.44.02-.68,0-.8-.17-1.52-.5-2.14ZM231.2,111.37c.33-.22.72-.32,1.17-.32.62,0,1.1.2,1.45.61.27.32.43.76.49,1.31h-4.02c.04-.23.09-.45.17-.64.17-.43.42-.75.75-.96Z"/><path class="cls-2" d="M133.94,116.2v-3.64c0-.74-.16-1.36-.49-1.85-.33-.49-.79-.86-1.37-1.1-.59-.25-1.27-.37-2.06-.37-1.16,0-2.08.24-2.77.72-.69.48-1.13,1.11-1.34,1.9l2.1.65c.16-.53.4-.9.74-1.13.34-.23.72-.34,1.17-.34.48,0,.86.14,1.16.43.29.29.44.69.44,1.2v.35l-3.09.62c-.8.16-1.42.45-1.85.87-.43.42-.65.97-.65,1.64,0,.53.12.97.36,1.33.24.36.58.63,1.02.82.44.18.97.28,1.58.28.49,0,.97-.08,1.43-.25.46-.17.85-.41,1.17-.73.11-.11.18-.23.26-.35.05.16.11.31.19.44.19.29.46.51.79.65.34.14.71.22,1.13.22.47,0,.86-.08,1.17-.23l.14-1.53c-.18.06-.37.09-.57.09-.43,0-.65-.23-.65-.68ZM131.34,115.91c-.11.23-.26.41-.45.54-.19.13-.41.23-.65.29-.24.06-.48.09-.74.09-.31,0-.58-.08-.8-.23-.22-.16-.33-.38-.33-.68s.1-.54.31-.67c.21-.14.52-.25.92-.33l1.88-.38v.56c0,.32-.05.6-.16.83Z"/><path class="cls-2" d="M182.42,109.79c-.69-.37-1.49-.56-2.4-.56s-1.69.18-2.39.56-1.24.9-1.62,1.6c-.39.69-.58,1.53-.58,2.51s.19,1.8.58,2.5c.39.7.93,1.23,1.62,1.61s1.49.56,2.39.56,1.71-.19,2.4-.56c.69-.37,1.23-.91,1.62-1.61.39-.7.58-1.54.58-2.5s-.19-1.82-.58-2.51c-.39-.69-.93-1.23-1.62-1.6ZM181.89,115.48c-.17.42-.41.73-.73.94-.32.21-.7.31-1.14.31s-.84-.1-1.16-.31c-.32-.21-.56-.52-.73-.94s-.25-.95-.25-1.58.08-1.16.25-1.58.41-.73.73-.94c.32-.21.7-.31,1.16-.31s.82.1,1.14.31c.32.21.56.52.73.94s.25.95.25,1.58-.08,1.16-.25,1.58Z"/><path class="cls-2" d="M140.05,116.75c-.33,0-.57-.08-.72-.25-.14-.17-.22-.46-.22-.88v-10.14h-2.46v10.41c0,.93.2,1.61.6,2.04.4.42,1.04.64,1.91.64.3,0,.6-.03.91-.1.31-.07.56-.16.76-.28l.22-1.62c-.2.06-.37.1-.5.14-.13.03-.3.04-.5.04Z"/><path class="cls-2" d="M121.93,116c-.16.24-.37.42-.62.55-.25.13-.56.19-.92.19-.44,0-.83-.1-1.16-.31-.33-.2-.58-.51-.75-.93-.17-.42-.26-.95-.26-1.58s.08-1.16.25-1.59c.17-.43.41-.74.74-.95.32-.21.71-.31,1.17-.31.49,0,.88.14,1.17.41.29.27.49.68.61,1.22l2.3-.83c-.14-.49-.39-.94-.73-1.34-.34-.4-.79-.72-1.35-.95-.56-.23-1.24-.35-2.04-.35-.9,0-1.69.18-2.39.56-.69.37-1.23.9-1.62,1.6-.38.69-.57,1.53-.57,2.51s.19,1.82.57,2.51c.38.69.93,1.23,1.63,1.6.71.37,1.52.56,2.44.56.74,0,1.39-.11,1.96-.34.56-.23,1.02-.54,1.38-.95.36-.41.6-.88.74-1.42l-2.23-.72c-.06.34-.17.62-.33.86Z"/><path class="cls-2" d="M171.83,109.59c-.48-.24-1.04-.36-1.66-.36s-1.2.14-1.71.42c-.5.28-.9.71-1.18,1.28v-5.46h-2.46v12.9h2.46v-4.74c0-.6.1-1.08.3-1.44.2-.37.45-.63.77-.79.32-.16.65-.24,1-.24.47,0,.85.15,1.15.44.3.29.45.83.45,1.61v5.17h2.46v-5.89c0-.73-.14-1.34-.42-1.82-.28-.48-.66-.85-1.15-1.09Z"/><polygon class="cls-2" points="158.32 116.32 155.91 106.54 153.54 106.54 151.18 116.32 148.84 106.54 146.2 106.54 149.65 118.39 152.5 118.39 154.14 111.93 154.69 109.13 154.73 109.13 155.29 111.93 156.94 118.39 159.72 118.39 163.16 106.54 160.63 106.54 158.32 116.32"/></svg>