<?xml version="1.0" encoding="UTF-8"?><svg xmlns="http://www.w3.org/2000/svg" viewBox="0 0 495.5 282.08"><defs><style>.cls-1,.cls-2,.cls-3,.cls-4,.cls-5{stroke-width:0px;}.cls-1,.cls-6{fill:#231f20;}.cls-2{fill:#bcbec0;}.cls-3{fill:#ee3124;}.cls-4{fill:#fff;}.cls-6{stroke:#ee3124;stroke-miterlimit:10;stroke-width:11.48px;}.cls-5{fill:#b12216;}</style></defs><g id="Graphics"><path class="cls-6" d="M380,142.39l-43.68,17.59c4.6,5.28,8.75,10.97,12.35,17.01,1.01,1.7,1.01,3.82,0,5.52-.09.16-.23.32-.39.48-10.21,17.02-24.66,31.28-41.82,41.24-9.91,5.76-20.62,10-31.73,12.62v34.71l-26.94-13.2-26.94,14.2v-35.65c-11.2-2.62-21.98-6.89-31.96-12.68-17.25-10.01-31.76-24.36-41.98-41.5-.55-.92-.82-1.95-.82-2.98,0-.24.02-.48.05-.72.1-.79.35-1.56.77-2.27,3.56-5.97,7.66-11.6,12.19-16.82l-43.59-17.56-101.01,13.02,3.49-20.75L6.45,35.44h145.31l-5.77-29.7h192.53l-4.77,29.7h155.31l-11.54,99.23,3.5,20.75-59.85-8.35-41.16-4.67Z"/><path class="cls-4" d="M232.16,239.31v14.47l10.41-4.81v-8.71c-3.49-.16-6.96-.47-10.41-.94Z"/><path class="cls-2" d="M232.16,239.31v7.92c3.39.7,6.87,1.18,10.41,1.42v-8.39c-3.49-.16-6.96-.47-10.41-.94Z"/><path class="cls-3" d="M252.99,240.24v8.72l10.41,4.81v-14.5c-3.45.48-6.92.8-10.41.97Z"/><path class="cls-5" d="M252.99,240.24v8.41c3.54-.24,7.02-.71,10.41-1.42v-7.95c-3.45.48-6.92.8-10.41.97Z"/><path class="cls-3" d="M247.78,135.14c34.12,0,66.28,17.4,85.1,45.7-50.09,37.58-120.11,37.58-170.2,0,18.83-28.3,50.98-45.7,85.1-45.7ZM247.78,229.16c-23.61,0-46.28-8.33-64.25-22.84,20.03,9.26,41.99,14.18,64.25,14.18s44.22-4.93,64.25-14.18c-17.97,14.51-40.64,22.84-64.25,22.84Z"/><polygon class="cls-3" points="297.64 241.65 301.16 248.79 309.05 249.94 303.34 255.5 304.69 263.35 297.64 259.64 290.58 263.35 291.93 255.5 286.22 249.94 294.11 248.79 297.64 241.65"/><polygon class="cls-4" points="297.64 241.65 297.64 253.31 286.22 249.94 294.11 248.79 297.64 241.65"/><polygon class="cls-3" points="197.92 241.65 201.45 248.79 209.34 249.94 203.63 255.5 204.98 263.35 197.92 259.64 190.87 263.35 192.22 255.5 186.51 249.94 194.4 248.79 197.92 241.65"/><polygon class="cls-4" points="197.92 241.65 197.92 253.31 186.51 249.94 194.4 248.79 197.92 241.65"/><path class="cls-2" d="M148.72,144.78l15.63,4.55c5.36,1.56,11.16.52,15.63-2.82,3.48-2.6,7.12-5,10.89-7.19.3-.17.61-.34.91-.51-13.97,1.46-29.36,3.44-43.05,5.96Z"/><path class="cls-3" d="M303.73,138.82c.3.17.61.33.91.51,3.77,2.19,7.41,4.59,10.89,7.19,4.47,3.34,10.27,4.38,15.63,2.82l15.63-4.55c-13.7-2.52-29.08-4.5-43.05-5.96Z"/><path class="cls-4" d="M207.61,215.09c-8.25-2.25-16.31-5.18-24.08-8.77,7.33,5.92,15.44,10.79,24.08,14.51v-5.74Z"/><path class="cls-4" d="M207.61,143.46c-9.47,4.07-18.31,9.55-26.17,16.25v32.99c8.41,4.43,17.18,7.95,26.17,10.57v-59.81Z"/><path class="cls-4" d="M287.95,215.09c8.25-2.25,16.31-5.18,24.08-8.77-7.33,5.92-15.44,10.79-24.08,14.51v-5.74Z"/><path class="cls-4" d="M287.95,143.46c9.47,4.07,18.31,9.55,26.17,16.25v32.99c-8.41,4.43-17.18,7.95-26.17,10.57v-59.81Z"/><path class="cls-1" d="M172.3,177.72c18.11-19.94,44.31-31.93,75.47-32.3,28.98.34,56.01,10.83,75.47,32.3-23.31-12.17-44.94-21.04-75.47-21.05-29.74,0-51.26,8.37-75.47,21.05Z"/><path class="cls-1" d="M247.78,169.14c-7.58-7.34-7.25-24.2,0-31.18,7.24,6.96,7.61,23.81,0,31.18Z"/><path class="cls-1" d="M220.19,172.98c-7.58-7.34-7.25-24.2,0-31.18,7.24,6.96,7.61,23.81,0,31.18Z"/><path class="cls-1" d="M275.38,172.98c-7.58-7.34-7.25-24.2,0-31.18,7.24,6.96,7.61,23.81,0,31.18Z"/><path class="cls-4" d="M220.19,141.8c-7.25,6.98-7.58,23.84,0,31.18v-31.18Z"/><path class="cls-4" d="M247.78,137.96c-7.25,6.98-7.58,23.84,0,31.18v-31.18Z"/><path class="cls-4" d="M275.38,141.8c-7.25,6.98-7.58,23.84,0,31.18v-31.18Z"/></g><g id="Text"><path class="cls-4" d="M185.62,19.54v4.59h-6.29v15.2h-6.12v-15.2h-6.35v-4.59h18.77Z"/><path class="cls-4" d="M195.45,19.54v19.78h-6.12v-19.78h6.12ZM205.22,27.07v4.59h-12.92v-4.59h12.92ZM208.01,19.54v19.78h-6.15v-19.78h6.15Z"/><path class="cls-4" d="M212.86,39.33v-19.78h15.95v4.59h-9.83v3.21h7.85v4.26h-7.85v3.15h10.22v4.59h-16.34Z"/><path class="cls-4" d="M260.17,33.45c-.36,1.46-.96,2.65-1.81,3.57-.85.92-1.88,1.58-3.09,1.99-1.21.41-2.54.61-4,.61-2.04,0-3.8-.4-5.29-1.21s-2.63-1.97-3.43-3.49c-.8-1.52-1.2-3.35-1.2-5.49s.4-3.97,1.2-5.49c.8-1.52,1.94-2.68,3.43-3.49s3.24-1.21,5.26-1.21c1.44,0,2.76.2,3.97.6,1.21.4,2.23,1.02,3.07,1.86.84.84,1.41,1.93,1.71,3.27l-5.3,2.13c-.22-1.28-.61-2.13-1.15-2.55-.55-.42-1.26-.63-2.11-.63-.8,0-1.48.21-2.05.61-.57.41-1,1.02-1.29,1.83-.29.81-.44,1.83-.44,3.07s.14,2.24.4,3.06c.27.82.69,1.43,1.26,1.84.57.41,1.31.61,2.23.61.82,0,1.51-.24,2.07-.72.56-.48.93-1.23,1.11-2.25l5.46,1.47Z"/><path class="cls-4" d="M282.29,19.54v19.78h-6.71l-5.4-9.8-1.26-2.67h-.06l.12,3.9v8.57h-5.34v-19.78h6.69l5.4,9.8,1.29,2.67h.03l-.12-3.9v-8.57h5.37Z"/><path class="cls-4" d="M290.98,39.33l-5.67-19.78h6.59l2.79,14.93,3.12-14.93h5.4l3.27,14.84,2.73-14.84h6.35l-5.67,19.78h-6.6l-1.92-8.45-.81-4.95h-.09l-.81,4.95-1.92,8.45h-6.77Z"/><path class="cls-4" d="M404.44,55.25c.02,8.94.03,17.88.05,26.82-2.86-9.05-5.72-17.99-8.58-26.84-4.4,0-8.8-.02-13.2-.02,0,4.06.02,8.12.03,12.18,1.48.02,2.96.05,4.44.07.03,14.33.06,28.66.09,43-1.48-.1-2.96-.2-4.44-.3,0,4.06.02,8.12.03,12.18,5.52.44,11.05.91,16.57,1.41-.02-9.23-.04-18.45-.05-27.68,2.98,9.39,5.95,18.89,8.92,28.5,4.28.41,8.55.83,12.82,1.27,0-4.27-.01-8.54-.02-12.8-1.48-.12-2.96-.25-4.44-.37-.02-14.89-.05-29.78-.07-44.67,1.48.03,2.96.06,4.44.09,0-4.27-.01-8.54-.02-12.8-5.53-.01-11.05-.02-16.58-.04Z"/><path class="cls-4" d="M277.97,55.09c0,3.75,0,7.51.01,11.26,1.48,0,2.96.01,4.44.02.01,13.19.03,26.39.04,39.58-1.48-.03-2.97-.05-4.45-.07,0,3.75,0,7.51.01,11.26,7.02.13,14.04.31,21.06.53,0-3.78-.01-7.57-.02-11.35-1.48-.04-2.97-.07-4.45-.11-.02-13.26-.04-26.52-.06-39.77,1.48,0,2.96.02,4.44.03,0-3.78-.01-7.57-.02-11.35-7.01,0-14.02,0-21.02-.01Z"/><path class="cls-4" d="M364.4,53.72c-9.72.02-14.7,5.37-14.68,13.05.03,13.87.06,27.75.1,41.62.02,7.68,5.02,13.33,14.75,14.04,9.73.71,14.7-4.4,14.68-12.35-.03-14.3-.06-28.61-.1-42.91-.02-7.94-5.02-13.47-14.74-13.45ZM367.1,107.65c0,1.75-.93,2.98-2.57,2.88-1.65-.1-2.59-1.43-2.59-3.17-.03-12.92-.06-25.83-.09-38.75,0-1.77.93-3.02,2.58-3,1.65.02,2.58,1.3,2.59,3.08.03,12.98.06,25.97.09,38.96Z"/><path class="cls-4" d="M90.1,55.28c-.04,18.2-.07,36.4-.11,54.61,0,1.82-.94,3.22-2.59,3.36-1.65.13-2.57-1.14-2.57-2.97.03-18.33.07-36.65.1-54.98-5.52.01-11.05.02-16.57.04,0,4.28-.01,8.55-.02,12.83,1.48-.03,2.95-.06,4.43-.09-.02,14.98-.05,29.96-.07,44.94-.01,8.36,4.95,13.64,14.67,12.69,9.72-.94,14.72-6.94,14.73-14.94.03-14.41.06-28.82.09-43.24,1.48-.02,2.95-.05,4.43-.07,0-4.07.02-8.14.03-12.2-5.52,0-11.04.02-16.56.03Z"/><path class="cls-4" d="M267.88,83.57c3.16-2.19,4.76-5.63,4.76-9.79,0-2.07,0-4.14,0-6.22,0-7.35-4.99-12.48-14.72-12.48-5.83,0-11.67,0-17.5,0,0,3.73,0,7.47,0,11.2,1.48,0,2.96,0,4.44,0,0,13.11,0,26.22,0,39.33-1.48,0-2.97,0-4.45,0,0,3.73,0,7.47,0,11.2,6.4-.02,12.79,0,19.19.05,9.75.09,14.73-4.94,14.73-12.3v-10.18c-.01-4.84-2.19-8.71-6.44-10.83ZM256.98,66.3c.62,0,1.24,0,1.86,0,1.64,0,2.58,1.22,2.58,2.86,0,2.49,0,4.98,0,7.47,0,1.66-.94,2.85-2.58,2.84-.62,0-1.24,0-1.86,0,0-4.39,0-8.79,0-13.18ZM262.17,102.87c0,1.67-.94,2.85-2.59,2.83-.86,0-1.72-.01-2.59-.02,0-5.67,0-11.34,0-17.01.86,0,1.72,0,2.59.01,1.65,0,2.59,1.21,2.59,2.87,0,3.77,0,7.54,0,11.31Z"/><path class="cls-4" d="M129.52,55.17c-6.38,0-12.77.02-19.15.03,0,4.05-.02,8.1-.03,12.15,1.48-.02,2.96-.05,4.44-.07-.03,14.15-.06,28.3-.1,42.45-1.48.09-2.96.19-4.44.28,0,4.05-.02,8.1-.03,12.15,7-.55,14.01-1.06,21.02-1.53,0-3.96.02-7.92.03-11.88-1.48.08-2.96.16-4.44.25,0-2.12,0-4.24.01-6.36.86-.04,1.72-.09,2.57-.13,9.73-.49,14.73-6.04,14.74-13.69.02-6.88.03-13.76.05-20.64.02-7.65-4.95-13-14.68-13ZM132.02,87.47c0,1.75-.95,3.06-2.59,3.12-.86.03-1.72.06-2.57.1.02-7.85.04-15.7.05-23.55.86-.01,1.72-.02,2.57-.04,1.64-.02,2.58,1.23,2.57,2.98-.01,5.8-.03,11.59-.04,17.39Z"/><path class="cls-4" d="M212.07,95.13c3.72-2.21,5.6-5.9,5.61-10.4,0-5.72,0-11.44.01-17.16,0-7.34-4.97-12.47-14.7-12.47-6.38,0-12.77,0-19.15.01,0,3.8-.01,7.6-.02,11.4,1.48-.01,2.96-.02,4.44-.03-.02,13.31-.04,26.62-.06,39.93-1.48.04-2.97.08-4.45.13,0,3.8-.01,7.6-.02,11.4,5.53-.2,11.06-.37,16.6-.52,0-6.53.02-13.07.03-19.6,2.24,6.49,4.48,12.97,6.72,19.43,4.36-.1,8.71-.18,13.07-.24.28,0,.29-11.24.29-11.24-1.47.02-2.94.04-4.42.06-1.31-3.56-2.63-7.13-3.94-10.7ZM205.53,84.92c0,1.67-.94,2.88-2.58,2.9-.86.01-1.72.02-2.59.04,0-7.14.02-14.28.03-21.42.86,0,1.72,0,2.58-.01,1.65,0,2.58,1.18,2.58,2.85,0,5.22-.01,10.43-.02,15.65Z"/><path class="cls-4" d="M424.18,55.29c0,4.29.01,8.58.02,12.86,1.48.03,2.96.06,4.44.09.02,15.15.04,30.3.05,45.45-1.48-.13-2.96-.26-4.43-.39,0,4.29.01,8.57.02,12.86,10.5,1.1,20.99,2.3,31.46,3.59v-24.31c-3.19-.27-6.38-.53-9.57-.79-.35,3.54-.69,7.06-1.04,10.59-1.44-.14-2.89-.28-4.33-.41,0-5.93,0-11.86-.01-17.79,2.3.15,4.59.31,6.89.47,0-4.42,0-8.84,0-13.27-2.3-.11-4.59-.22-6.89-.33,0-5.15,0-10.31-.01-15.46,1.43.03,2.87.07,4.3.1.36,3.55.72,7.11,1.08,10.68,3.19.13,6.39.26,9.58.39v-24.28c-10.52-.03-21.04-.05-31.56-.08Z"/><path class="cls-4" d="M147.22,55.15c0,3.9-.02,7.8-.03,11.7,1.48-.02,2.96-.03,4.44-.05-.03,13.65-.06,27.29-.09,40.94-1.48.07-2.96.14-4.45.21,0,3.9-.02,7.8-.03,11.7,10.53-.61,21.06-1.11,31.59-1.52.01-6.86.02-13.72.04-20.59-3.2.08-6.4.18-9.6.27-.35,3.09-.71,6.19-1.06,9.29-1.45.05-2.9.11-4.35.17.01-5.19.02-10.39.03-15.58,2.3-.06,4.6-.13,6.9-.18,0-3.81.01-7.63.02-11.44-2.3.04-4.6.08-6.9.13,0-4.51.02-9.03.03-13.55,1.44-.01,2.87-.03,4.31-.04.35,3.07.71,6.14,1.06,9.21,3.2-.05,6.4-.09,9.6-.14.01-6.85.02-13.71.04-20.56-10.52,0-21.04.02-31.56.03Z"/><path class="cls-4" d="M49.89,53.72c-9.73-.03-14.7,6.12-14.7,14.97v7.5c0,15.94,17.25,19.52,17.25,27.45,0,1.47,0,9.25,0,9.25,0,1.94-1.27,3.46-2.42,3.57-1.64.16-2.5-1.24-2.74-3.1-.37-2.93-.74-5.86-1.11-8.79-3.66.29-7.33.59-10.99.9,0,3.66,0,7.32,0,10.98,0,8.84,4.97,14.36,14.67,13.18,9.7-1.16,14.67-7.56,14.68-15.96,0,0,0-7.16.01-10.8.02-13.74-17.25-18.42-17.25-26.2,0-5.78,0-6.38,0-6.38,0-1.97,1.27-3.4,2.42-3.42,1.65-.03,2.51,1.43,2.74,3.29.37,2.93.74,5.85,1.11,8.77,3.67-.14,7.34-.28,11.01-.41,0-3.5,0-6.99.01-10.49.01-8.4-4.96-14.28-14.7-14.31Z"/><path class="cls-4" d="M316.79,91.41c1.01.02,2.02.05,3.03.08,0,4.67.02,9.33.03,14,0,1.68-.93,2.88-2.58,2.82-1.65-.06-2.59-1.32-2.59-2.99-.02-12.42-.05-24.84-.07-37.27,0-1.7,1.26-2.9,2.41-2.9,1.65.01,2.51,1.31,2.76,2.94.38,2.57.75,5.15,1.13,7.72,3.67.06,7.35.11,11.02.18,0-3.14-.01-6.28-.02-9.42-.02-7.58-5.01-12.86-14.75-12.85-9.72.01-14.69,5.19-14.68,12.61.02,13.41.04,26.82.06,40.22.01,7.43,5,12.76,14.75,13.18,9.73.44,14.72-4.57,14.71-12.16-.02-9.1-.04-18.19-.06-27.29-5.06-.1-10.11-.2-15.17-.28,0,3.8.01,7.61.02,11.41Z"/></g></svg>